<svg width="24" height="24" viewBox="0 0 24 24" fill="none" xmlns="http://www.w3.org/2000/svg">
<path d="M8.26172 22.1572C8.62783 22.163 8.92285 22.4607 8.92285 22.8281C8.92285 23.1956 8.62783 23.4923 8.26172 23.498C7.35862 23.454 7.3613 22.2016 8.26172 22.1572ZM17.5898 22.1572C17.9559 22.163 18.251 22.4607 18.251 22.8281C18.251 23.1956 17.9559 23.4923 17.5898 23.498C16.6867 23.4541 16.6894 22.2016 17.5898 22.1572ZM0.573242 0.697266C0.706233 0.495526 0.977854 0.439183 1.17969 0.572266C2.48849 1.43525 3.549 2.57354 4.30762 3.88281L4.33398 3.92676L4.36719 3.96484C4.56855 4.19043 6.08405 5.79684 8.5791 5.79688H19.3838C21.9959 5.74803 24.056 8.38879 23.373 10.9102L23.3701 10.9189L22.1279 15.8721C21.555 18.1555 19.5114 19.7498 17.1572 19.75H9.8916C7.06615 19.75 4.7666 17.4505 4.7666 14.625V8.85938C4.76657 5.80807 3.24462 2.98232 0.697266 1.30273C0.496006 1.16974 0.440606 0.898867 0.573242 0.697266ZM5.41602 6.74805C5.56437 7.43343 5.64159 8.14046 5.6416 8.85938V14.625C5.6416 16.9689 7.54774 18.875 9.8916 18.875H17.1572C19.1087 18.8748 20.8044 17.552 21.2793 15.6592L22.5195 10.7148C23.0632 8.70707 21.4529 6.6395 19.375 6.67188H8.5791C7.62272 6.67187 6.79101 6.4657 6.0957 6.17969L5.21484 5.81738L5.41602 6.74805ZM19.375 9.54688C19.6165 9.547 19.8125 9.74286 19.8125 9.98438C19.8125 10.2259 19.6165 10.4217 19.375 10.4219H8.97363C8.40731 10.3993 8.37434 9.67141 8.86816 9.56055L8.97363 9.54688H19.375Z" fill="#3D3D3D"/>
<path d="M8.26172 22.1572C8.62783 22.163 8.92285 22.4607 8.92285 22.8281C8.92285 23.1956 8.62783 23.4923 8.26172 23.498C7.35862 23.454 7.3613 22.2016 8.26172 22.1572ZM17.5898 22.1572C17.9559 22.163 18.251 22.4607 18.251 22.8281C18.251 23.1956 17.9559 23.4923 17.5898 23.498C16.6867 23.4541 16.6894 22.2016 17.5898 22.1572ZM0.573242 0.697266C0.706233 0.495526 0.977854 0.439183 1.17969 0.572266C2.48849 1.43525 3.549 2.57354 4.30762 3.88281L4.33398 3.92676L4.36719 3.96484C4.56855 4.19043 6.08405 5.79684 8.5791 5.79688H19.3838C21.9959 5.74803 24.056 8.38879 23.373 10.9102L23.3701 10.9189L22.1279 15.8721C21.555 18.1555 19.5114 19.7498 17.1572 19.75H9.8916C7.06615 19.75 4.7666 17.4505 4.7666 14.625V8.85938C4.76657 5.80807 3.24462 2.98232 0.697266 1.30273C0.496006 1.16974 0.440606 0.898867 0.573242 0.697266ZM5.41602 6.74805C5.56437 7.43343 5.64159 8.14046 5.6416 8.85938V14.625C5.6416 16.9689 7.54774 18.875 9.8916 18.875H17.1572C19.1087 18.8748 20.8044 17.552 21.2793 15.6592L22.5195 10.7148C23.0632 8.70707 21.4529 6.6395 19.375 6.67188H8.5791C7.62272 6.67187 6.79101 6.4657 6.0957 6.17969L5.21484 5.81738L5.41602 6.74805ZM19.375 9.54688C19.6165 9.547 19.8125 9.74286 19.8125 9.98438C19.8125 10.2259 19.6165 10.4217 19.375 10.4219H8.97363C8.40731 10.3993 8.37434 9.67141 8.86816 9.56055L8.97363 9.54688H19.375Z" stroke="black"/>
<path d="M8.26172 22.1572C8.62783 22.163 8.92285 22.4607 8.92285 22.8281C8.92285 23.1956 8.62783 23.4923 8.26172 23.498C7.35862 23.454 7.3613 22.2016 8.26172 22.1572ZM17.5898 22.1572C17.9559 22.163 18.251 22.4607 18.251 22.8281C18.251 23.1956 17.9559 23.4923 17.5898 23.498C16.6867 23.4541 16.6894 22.2016 17.5898 22.1572ZM0.573242 0.697266C0.706233 0.495526 0.977854 0.439183 1.17969 0.572266C2.48849 1.43525 3.549 2.57354 4.30762 3.88281L4.33398 3.92676L4.36719 3.96484C4.56855 4.19043 6.08405 5.79684 8.5791 5.79688H19.3838C21.9959 5.74803 24.056 8.38879 23.373 10.9102L23.3701 10.9189L22.1279 15.8721C21.555 18.1555 19.5114 19.7498 17.1572 19.75H9.8916C7.06615 19.75 4.7666 17.4505 4.7666 14.625V8.85938C4.76657 5.80807 3.24462 2.98232 0.697266 1.30273C0.496006 1.16974 0.440606 0.898867 0.573242 0.697266ZM5.41602 6.74805C5.56437 7.43343 5.64159 8.14046 5.6416 8.85938V14.625C5.6416 16.9689 7.54774 18.875 9.8916 18.875H17.1572C19.1087 18.8748 20.8044 17.552 21.2793 15.6592L22.5195 10.7148C23.0632 8.70707 21.4529 6.6395 19.375 6.67188H8.5791C7.62272 6.67187 6.79101 6.4657 6.0957 6.17969L5.21484 5.81738L5.41602 6.74805ZM19.375 9.54688C19.6165 9.547 19.8125 9.74286 19.8125 9.98438C19.8125 10.2259 19.6165 10.4217 19.375 10.4219H8.97363C8.40731 10.3993 8.37434 9.67141 8.86816 9.56055L8.97363 9.54688H19.375Z" stroke="black" stroke-opacity="0.2"/>
</svg>
