<svg xmlns="http://www.w3.org/2000/svg" width="0" height="0" class="hidden">

  <symbol fill="none" xmlns="http://www.w3.org/2000/svg" viewBox="0 0 32 32" id="facebook_footer">
    <rect x="0.5" y="0.5" width="31" height="31" rx="4.5" stroke="#46A358" stroke-opacity="0.2"></rect>
    <path d="M14 13.3333H12V16H14V24H17.3333V16H19.7333L20 13.3333H17.3333V12.2C17.3333 11.6 17.4667 11.3333 18.0667 11.3333H20V8H17.4667C15.0667 8 14 9.06667 14 11.0667V13.3333Z" fill="#46A358" fill-opacity="0.6"></path>
  </symbol>
  <symbol fill="none" xmlns="http://www.w3.org/2000/svg" viewBox="0 0 32 32" id="instagram_footer">
    <rect x="0.5" y="0.5" width="31" height="31" rx="4.5" stroke="#46A358" stroke-opacity="0.2"></rect>
    <path d="M16 9.46667C18.1333 9.46667 18.4 9.46667 19.2667 9.53333C21.4667 9.6 22.4667 10.6667 22.5333 12.8C22.6 13.6667 22.6 13.8667 22.6 16C22.6 18.1333 22.6 18.4 22.5333 19.2C22.4667 21.3333 21.4 22.4 19.2667 22.4667C18.4 22.5333 18.2 22.5333 16 22.5333C13.8667 22.5333 13.6 22.5333 12.8 22.4667C10.6 22.4 9.6 21.3333 9.53333 19.2C9.46667 18.3333 9.46667 18.1333 9.46667 16C9.46667 13.8667 9.46667 13.6 9.53333 12.8C9.6 10.6667 10.6667 9.6 12.8 9.53333C13.6 9.46667 13.8667 9.46667 16 9.46667ZM16 8C13.8 8 13.5333 8 12.7333 8.06667C9.8 8.2 8.2 9.8 8.06667 12.7333C8 13.5333 8 13.8 8 16C8 18.2 8 18.4667 8.06667 19.2667C8.2 22.2 9.8 23.8 12.7333 23.9333C13.5333 24 13.8 24 16 24C18.2 24 18.4667 24 19.2667 23.9333C22.2 23.8 23.8 22.2 23.9333 19.2667C24 18.4667 24 18.2 24 16C24 13.8 24 13.5333 23.9333 12.7333C23.8 9.8 22.2 8.2 19.2667 8.06667C18.4667 8 18.2 8 16 8ZM16 11.8667C13.7333 11.8667 11.8667 13.7333 11.8667 16C11.8667 18.2667 13.7333 20.1333 16 20.1333C18.2667 20.1333 20.1333 18.2667 20.1333 16C20.1333 13.7333 18.2667 11.8667 16 11.8667ZM16 18.6667C14.5333 18.6667 13.3333 17.4667 13.3333 16C13.3333 14.5333 14.5333 13.3333 16 13.3333C17.4667 13.3333 18.6667 14.5333 18.6667 16C18.6667 17.4667 17.4667 18.6667 16 18.6667ZM20.2667 10.8C19.7333 10.8 19.3333 11.2 19.3333 11.7333C19.3333 12.2667 19.7333 12.6667 20.2667 12.6667C20.8 12.6667 21.2 12.2667 21.2 11.7333C21.2 11.2 20.8 10.8 20.2667 10.8Z" fill="#46A358" fill-opacity="0.6"></path>
  </symbol>
  <symbol fill="none" xmlns="http://www.w3.org/2000/svg" viewBox="0 0 32 32" id="linkidin_footer">
    <rect x="0.5" y="0.5" width="31" height="31" rx="4.5" stroke="#46A358" stroke-opacity="0.2"></rect>
    <path d="M11.3333 9.66667C11.3333 10.6 10.6 11.3333 9.66667 11.3333C8.73333 11.3333 8 10.6 8 9.66667C8 8.73333 8.73333 8 9.66667 8C10.6 8 11.3333 8.73333 11.3333 9.66667ZM11.3333 12.6667H8V23.3333H11.3333V12.6667ZM16.6667 12.6667H13.3333V23.3333H16.6667V17.7333C16.6667 14.6 20.6667 14.3333 20.6667 17.7333V23.3333H24V16.6C24 11.3333 18.0667 11.5333 16.6667 14.1333V12.6667Z" fill="#46A358" fill-opacity="0.6"></path>
  </symbol>
  <symbol fill="none" xmlns="http://www.w3.org/2000/svg" viewBox="0 0 32 32" id="twitter_footer">
    <rect x="0.5" y="0.5" width="31" height="31" rx="4.5" stroke="#46A358" stroke-opacity="0.2"></rect>
    <path d="M13.0319 22.0036C19.0699 22.0036 22.3718 17.0012 22.3718 12.6636C22.3718 12.5214 22.3689 12.38 22.3624 12.2392C23.0033 11.7759 23.5605 11.1976 24 10.5395C23.4118 10.8008 22.7789 10.9768 22.1149 11.0562C22.7926 10.6498 23.313 10.0067 23.5585 9.24021C22.9241 9.61636 22.2217 9.88969 21.4742 10.0371C20.8749 9.39908 20.0218 9 19.0779 9C17.2648 9 15.7946 10.4702 15.7946 12.2823C15.7946 12.54 15.8236 12.7904 15.8796 13.0308C13.1516 12.8938 10.7324 11.5874 9.11352 9.60125C8.83127 10.0862 8.66877 10.65 8.66877 11.2511C8.66877 12.3899 9.24837 13.3953 10.1297 13.9836C9.59121 13.9671 9.08531 13.8189 8.64293 13.5729C8.6422 13.5866 8.6422 13.6004 8.6422 13.6148C8.6422 15.2047 9.77392 16.532 11.2758 16.8329C11.0001 16.908 10.71 16.9484 10.4105 16.9484C10.199 16.9484 9.99338 16.9273 9.79339 16.8893C10.2112 18.1933 11.4232 19.1425 12.8601 19.1693C11.7364 20.0499 10.3209 20.5745 8.78305 20.5745C8.51827 20.5745 8.25695 20.5594 8 20.529C9.45273 21.46 11.1777 22.0036 13.0319 22.0036Z" fill="#46A358" fill-opacity="0.6"></path>
  </symbol>
  <symbol fill="none" xmlns="http://www.w3.org/2000/svg" viewBox="0 0 32 32" id="youtube_footer">
    <rect x="0.5" y="0.5" width="31" height="31" rx="4.5" stroke="#46A358" stroke-opacity="0.2"></rect>
    <path d="M10.4219 9.17499C13.2218 8.94167 19.4443 8.94167 22.2441 9.17499L22.5205 9.20136C25.301 9.52296 25.666 11.3484 25.666 16.0197L25.6611 16.8889C25.6073 21.0678 25.0875 22.7175 22.2441 22.8635C19.4443 23.019 13.2218 23.019 10.4219 22.8635C7.57833 22.6447 7.05868 21.0587 7.00488 16.8879L7 16.0197C7 11.1978 7.38884 9.40838 10.4219 9.17499ZM21.3408 13.3566C18.7471 13.1955 13.9159 13.1955 11.3232 13.3566C11.323 13.3592 11.3235 13.3619 11.3232 13.3644C11.2608 13.9972 11.2363 14.842 11.2363 16.0197C11.2363 17.1893 11.2607 18.0301 11.3223 18.6613C13.9705 18.7666 18.6955 18.7666 21.3438 18.6613C21.4047 18.0237 21.4297 17.1804 21.4297 16.0197C21.4297 14.842 21.4043 13.9972 21.3418 13.3644C21.3415 13.3618 21.3411 13.3592 21.3408 13.3566ZM14 16.0197C14 14.5904 15.5038 13.6608 16.7822 14.3C18.1992 15.0086 18.1993 17.0309 16.7822 17.7394C15.504 18.3784 14.0003 17.4487 14 16.0197Z" fill="#46A358" fill-opacity="0.6"></path>
  </symbol>

</svg>